<?xml version="1.0" encoding="UTF-8"?>
<svg xmlns="http://www.w3.org/2000/svg" width="1024" height="1024" viewBox="0 0 1024 1024">
  <g fill="#4d572a" fill-rule="evenodd" stroke="none">
    <path d="M 728.00,447.50 L 293.00,447.50 L 290.50,450.00 L 290.50,685.00 L 296.50,717.00 L 305.50,743.00 L 325.50,780.00 L 342.50,802.00 L 370.00,828.50 L 404.00,851.50 L 449.00,870.50 L 495.00,878.50 L 536.00,877.50 L 586.00,865.50 L 620.00,849.50 L 657.00,823.50 L 680.50,800.00 L 701.50,771.00 L 717.50,738.00 L 727.50,704.00 L 731.50,671.00 L 731.50,453.00 L 728.00,447.50 Z M 719.50,560.00 L 720.50,672.00 L 715.50,707.00 L 704.50,741.00 L 688.50,771.00 L 667.50,798.00 L 637.00,825.50 L 596.00,849.50 L 565.00,860.50 L 524.00,867.50 L 478.00,865.50 L 434.00,853.50 L 400.00,836.50 L 367.00,811.50 L 339.50,781.00 L 316.50,741.00 L 306.50,712.00 L 301.50,685.00 L 302.00,586.50 L 308.50,588.00 L 314.00,599.50 L 319.00,599.50 L 325.00,594.50 L 327.50,596.00 L 329.50,647.00 L 318.00,648.50 L 316.50,657.00 L 376.50,736.00 L 383.00,742.50 L 398.50,744.00 L 396.50,755.00 L 402.00,760.50 L 427.00,760.50 L 429.00,742.50 L 525.00,741.50 L 533.50,757.00 L 544.00,765.50 L 560.00,771.50 L 580.00,770.50 L 593.00,764.50 L 604.50,752.00 L 610.50,738.00 L 610.50,717.00 L 615.00,715.50 L 617.50,717.00 L 618.50,728.00 L 625.00,733.50 L 630.00,733.50 L 638.00,744.50 L 664.00,748.50 L 673.00,739.50 L 679.00,738.50 L 685.00,727.50 L 696.50,722.00 L 696.50,708.00 L 700.50,699.00 L 713.50,692.00 L 714.50,683.00 L 708.50,671.00 L 717.50,657.00 L 717.50,651.00 L 704.00,632.50 L 686.00,628.50 L 680.00,633.50 L 669.50,624.00 L 662.50,605.00 L 662.50,574.00 L 664.50,568.00 L 669.00,565.50 L 674.00,570.50 L 682.00,567.50 L 684.50,576.00 L 692.00,578.50 L 699.00,566.50 L 709.00,568.50 L 715.00,559.50 L 719.50,560.00 Z M 559.00,778.50 L 554.50,783.00 L 547.50,826.00 L 546.50,836.00 L 550.00,838.50 L 554.50,833.00 L 561.50,788.00 L 559.00,778.50 Z M 583.00,778.50 L 578.50,780.00 L 578.50,784.00 L 590.50,832.00 L 596.00,834.50 L 597.50,829.00 L 583.00,778.50 Z M 538.00,771.50 L 531.50,776.00 L 505.50,812.00 L 502.50,817.00 L 504.00,821.50 L 510.50,818.00 L 537.50,780.00 L 540.50,775.00 L 538.00,771.50 Z M 603.00,768.50 L 600.00,768.50 L 598.50,773.00 L 624.50,804.00 L 633.00,809.50 L 633.50,803.00 L 603.00,768.50 Z M 521.00,755.50 L 476.00,781.50 L 471.50,787.00 L 477.00,789.50 L 517.00,764.50 L 522.50,760.00 L 521.00,755.50 Z M 617.00,754.50 L 612.50,756.00 L 617.00,762.50 L 648.00,777.50 L 653.50,775.00 L 652.00,771.50 L 617.00,754.50 Z M 595.50,701.00 L 602.50,713.00 L 604.50,734.00 L 597.50,749.00 L 587.00,759.50 L 578.00,763.50 L 563.00,764.50 L 548.00,759.50 L 538.50,751.00 L 534.50,744.00 L 536.00,740.50 L 557.00,740.50 L 595.50,701.00 Z M 416.50,742.00 L 417.50,750.00 L 410.00,751.50 L 408.50,744.00 L 416.50,742.00 Z M 402.50,561.00 L 408.00,566.50 L 414.00,566.50 L 422.00,574.50 L 430.00,574.50 L 438.50,570.00 L 438.50,633.00 L 443.00,638.50 L 461.00,638.50 L 462.50,641.00 L 439.50,654.00 L 442.50,660.00 L 439.50,664.00 L 382.00,728.50 L 331.50,663.00 L 333.00,660.50 L 337.50,665.00 L 374.50,713.00 L 385.00,721.50 L 387.50,716.00 L 336.50,654.00 L 337.50,572.00 L 345.00,569.50 L 354.00,576.50 L 361.00,576.50 L 372.00,565.50 L 379.00,568.50 L 402.50,561.00 Z M 459.50,702.00 L 482.00,722.50 L 502.00,702.50 L 504.50,706.00 L 481.00,728.50 L 456.50,704.00 L 459.50,702.00 Z M 571.50,702.00 L 572.50,705.00 L 551.00,727.50 L 524.50,704.00 L 528.00,701.50 L 552.00,721.50 L 571.50,702.00 Z M 496.50,660.00 L 497.50,697.00 L 482.00,712.50 L 464.50,695.00 L 464.50,664.00 L 467.00,660.50 L 496.50,660.00 Z M 550.50,660.00 L 564.50,662.00 L 564.50,697.00 L 549.00,711.50 L 532.50,695.00 L 531.50,666.00 L 534.00,659.50 L 550.50,660.00 Z M 478.00,681.50 L 471.50,683.00 L 473.00,691.50 L 480.50,689.00 L 478.00,681.50 Z M 489.00,681.50 L 482.50,683.00 L 484.00,691.50 L 490.50,690.00 L 489.00,681.50 Z M 546.00,681.50 L 539.50,683.00 L 541.00,691.50 L 547.50,690.00 L 546.00,681.50 Z M 556.00,681.50 L 549.50,683.00 L 551.00,691.50 L 557.50,690.00 L 556.00,681.50 Z M 387.00,674.50 L 379.50,676.00 L 381.00,688.50 L 388.50,687.00 L 387.00,674.50 Z M 398.00,674.50 L 390.50,676.00 L 392.00,688.50 L 399.50,687.00 L 398.00,674.50 Z M 478.00,669.50 L 471.50,671.00 L 473.00,679.50 L 479.50,678.00 L 478.00,669.50 Z M 489.00,669.50 L 482.50,671.00 L 484.00,679.50 L 490.50,678.00 L 489.00,669.50 Z M 546.00,669.50 L 539.50,671.00 L 541.00,679.50 L 547.50,678.00 L 546.00,669.50 Z M 556.00,669.50 L 549.50,672.00 L 551.00,679.50 L 557.50,678.00 L 556.00,669.50 Z M 662.50,663.00 L 664.50,674.00 L 661.00,677.50 L 662.50,663.00 Z M 651.50,647.00 L 650.50,670.00 L 648.00,673.50 L 642.00,673.50 L 639.50,667.00 L 642.50,656.00 L 651.50,647.00 Z M 387.00,658.50 L 379.50,660.00 L 381.00,672.50 L 388.50,671.00 L 387.00,658.50 Z M 398.00,658.50 L 390.50,660.00 L 392.00,672.50 L 399.50,671.00 L 398.00,658.50 Z M 634.50,657.00 L 631.50,659.00 L 634.50,657.00 Z M 664.50,627.00 L 678.50,644.00 L 679.00,651.50 L 669.00,653.50 L 666.50,651.00 L 660.50,632.00 L 661.50,627.00 L 664.50,627.00 Z M 641.50,634.00 L 647.50,636.00 L 476.00,637.50 L 470.50,635.00 L 641.50,634.00 Z M 362.00,614.50 L 353.50,616.00 L 355.00,632.50 L 363.50,631.00 L 362.00,614.50 Z M 375.00,614.50 L 366.50,616.00 L 368.00,632.50 L 376.50,631.00 L 375.00,614.50 Z M 411.00,614.50 L 402.50,616.00 L 404.00,632.50 L 412.50,631.00 L 411.00,614.50 Z M 424.00,614.50 L 415.50,616.00 L 417.00,632.50 L 425.50,631.00 L 424.00,614.50 Z M 461.50,594.00 L 462.50,631.00 L 448.00,632.50 L 446.50,595.00 L 461.50,594.00 Z M 475.50,573.00 L 476.50,627.00 L 472.00,628.50 L 469.50,618.00 L 469.50,574.00 L 475.50,573.00 Z M 532.50,573.00 L 533.50,627.00 L 529.00,628.50 L 527.50,574.00 L 532.50,573.00 Z M 518.50,595.00 L 519.50,625.00 L 495.00,626.50 L 493.50,600.00 L 482.50,596.00 L 518.50,595.00 Z M 570.50,572.00 L 572.50,586.00 L 569.50,609.00 L 573.00,610.50 L 576.00,606.50 L 585.00,606.50 L 587.50,609.00 L 587.50,625.00 L 552.00,626.50 L 550.50,573.00 L 570.50,572.00 Z M 632.50,595.00 L 632.00,626.50 L 599.50,624.00 L 601.00,594.50 L 609.50,596.00 L 612.00,608.50 L 623.00,608.50 L 624.50,596.00 L 632.50,595.00 Z M 648.50,572.00 L 650.50,624.00 L 643.00,625.50 L 640.50,623.00 L 639.50,573.00 L 648.50,572.00 Z M 362.00,594.50 L 353.50,596.00 L 355.00,612.50 L 363.50,611.00 L 362.00,594.50 Z M 375.00,594.50 L 366.50,596.00 L 368.00,612.50 L 376.50,611.00 L 375.00,594.50 Z M 411.00,594.50 L 402.50,596.00 L 404.00,612.50 L 412.50,611.00 L 411.00,594.50 Z M 424.00,594.50 L 415.50,596.00 L 417.00,612.50 L 425.50,611.00 L 424.00,594.50 Z M 587.50,592.00 L 588.50,600.00 L 585.00,602.50 L 584.50,593.00 L 587.50,592.00 Z M 581.50,593.00 L 580.00,601.50 L 578.50,593.00 L 581.50,593.00 Z M 619.50,593.00 L 619.50,599.00 L 617.00,599.50 L 616.50,593.00 L 619.50,593.00 Z M 613.50,594.00 L 612.00,597.50 L 613.50,594.00 Z M 598.50,572.00 L 599.50,583.00 L 612.00,586.50 L 603.00,586.50 L 600.00,590.50 L 591.50,589.00 L 591.50,573.00 L 598.50,572.00 Z M 632.50,572.00 L 633.50,589.00 L 626.00,590.50 L 622.50,586.00 L 623.50,573.00 L 632.50,572.00 Z M 449.50,573.00 L 450.50,588.00 L 448.00,589.50 L 446.50,574.00 L 449.50,573.00 Z M 458.50,572.00 L 459.50,588.00 L 457.00,589.50 L 455.50,573.00 L 458.50,572.00 Z M 486.50,572.00 L 487.50,588.00 L 484.00,589.50 L 482.50,574.00 L 486.50,572.00 Z M 496.50,573.00 L 498.50,588.00 L 494.00,589.50 L 492.50,574.00 L 496.50,573.00 Z M 507.50,573.00 L 508.50,588.00 L 505.00,589.50 L 503.50,574.00 L 507.50,573.00 Z M 518.50,573.00 L 519.50,588.00 L 516.00,589.50 L 514.50,574.00 L 518.50,573.00 Z M 618.50,573.00 L 618.50,578.00 L 616.00,578.50 L 615.50,573.00 L 618.50,573.00 Z M 587.50,573.00 L 585.00,577.50 L 584.50,573.00 L 587.50,573.00 Z M 578.50,574.00 L 577.00,576.50 L 578.50,574.00 Z M 606.50,573.00 L 604.00,576.50 L 603.50,573.00 L 606.50,573.00 Z M 582.50,574.00 L 580.50,575.00 L 582.50,574.00 Z M 536.50,557.00 L 536.00,563.50 L 471.50,563.00 L 473.00,556.50 L 536.50,557.00 Z M 586.50,560.00 L 586.00,564.50 L 547.50,563.00 L 549.00,559.50 L 586.50,560.00 Z M 648.50,558.00 L 648.00,563.50 L 596.50,563.00 L 598.00,557.50 L 648.50,558.00 Z M 463.50,459.00 L 467.50,462.00 L 467.50,467.00 L 461.00,474.50 L 417.00,492.50 L 404.50,504.00 L 405.50,514.00 L 416.00,524.50 L 462.00,542.50 L 361.00,555.50 L 312.00,555.50 L 300.50,553.00 L 302.00,458.50 L 377.00,458.50 L 377.50,465.00 L 370.50,479.00 L 376.00,482.50 L 384.00,473.50 L 390.00,483.50 L 395.50,482.00 L 395.00,467.50 L 405.00,474.50 L 412.50,473.00 L 403.50,463.00 L 404.00,458.50 L 463.50,459.00 Z M 595.50,551.00 L 595.00,555.50 L 554.50,554.00 L 561.00,550.50 L 595.50,551.00 Z M 719.50,459.00 L 719.00,547.50 L 681.00,548.50 L 592.00,538.50 L 533.00,527.50 L 497.50,516.00 L 505.00,510.50 L 559.00,499.50 L 589.00,488.50 L 611.00,476.50 L 630.00,458.50 L 719.50,459.00 Z M 610.50,459.00 L 602.00,468.50 L 577.00,481.50 L 497.00,501.50 L 485.00,506.50 L 480.50,512.00 L 481.50,517.00 L 494.00,525.50 L 551.00,541.50 L 509.00,540.50 L 468.00,533.50 L 435.00,523.50 L 416.50,511.00 L 416.50,507.00 L 425.00,499.50 L 469.00,481.50 L 479.50,469.00 L 480.00,458.50 L 610.50,459.00 Z M 359.00,486.50 L 342.00,489.50 L 331.50,508.00 L 321.50,518.00 L 324.00,521.50 L 329.00,521.50 L 344.50,509.00 L 336.50,534.00 L 338.00,538.50 L 344.50,537.00 L 353.00,510.50 L 358.50,521.00 L 367.00,529.50 L 369.50,528.00 L 362.00,503.50 L 375.00,511.50 L 382.50,510.00 L 359.00,486.50 Z M 644.00,488.50 L 631.50,491.00 L 628.50,503.00 L 616.50,522.00 L 619.00,526.50 L 628.50,520.00 L 638.00,502.50 L 650.00,520.50 L 657.50,520.00 L 649.50,505.00 L 647.50,491.00 L 644.00,488.50 Z M 617.00,498.50 L 601.00,505.50 L 598.50,510.00 L 605.00,512.50 L 614.00,508.50 L 619.50,503.00 L 617.00,498.50 Z M 683.00,478.50 L 668.50,481.00 L 662.50,504.00 L 664.00,507.50 L 670.00,506.50 L 677.00,494.50 L 682.50,505.00 L 692.00,510.50 L 693.50,506.00 L 687.00,489.50 L 698.00,498.50 L 702.50,497.00 L 691.00,479.50 L 686.00,481.50 L 683.00,478.50 Z M 334.00,485.50 L 319.50,498.00 L 322.00,501.50 L 328.00,501.50 L 334.50,496.00 L 336.50,488.00 L 334.00,485.50 Z M 424.00,309.50 L 401.00,310.50 L 381.00,319.50 L 367.50,334.00 L 360.50,352.00 L 360.50,372.00 L 371.50,396.00 L 386.00,408.50 L 404.00,415.50 L 422.00,416.50 L 445.00,409.50 L 460.50,396.00 L 470.50,375.00 L 470.50,351.00 L 462.50,332.00 L 445.00,316.50 L 424.00,309.50 Z M 551.00,309.50 L 534.00,309.50 L 513.00,316.50 L 497.50,330.00 L 488.50,351.00 L 488.50,375.00 L 495.50,392.00 L 508.00,405.50 L 529.00,415.50 L 552.00,415.50 L 567.00,410.50 L 578.50,411.00 L 579.00,383.50 L 573.50,385.00 L 562.00,401.50 L 549.00,406.50 L 535.00,406.50 L 525.00,402.50 L 517.50,395.00 L 511.50,382.00 L 509.50,359.00 L 512.50,344.00 L 526.00,324.50 L 541.00,319.50 L 553.00,320.50 L 563.00,325.50 L 576.00,343.50 L 580.50,342.00 L 578.50,323.00 L 565.00,313.50 L 551.00,309.50 Z M 759.00,312.50 L 722.00,312.50 L 719.50,317.00 L 727.50,322.00 L 727.50,327.00 L 720.00,343.50 L 686.00,343.50 L 679.50,323.00 L 689.50,317.00 L 688.00,312.50 L 656.50,314.00 L 669.50,330.00 L 691.50,391.00 L 693.50,400.00 L 688.50,404.00 L 690.00,408.50 L 711.00,414.50 L 717.50,411.00 L 744.50,337.00 L 750.50,324.00 L 760.50,317.00 L 759.00,312.50 Z M 344.00,312.50 L 271.50,314.00 L 271.50,317.00 L 280.50,323.00 L 280.50,402.00 L 271.50,409.00 L 273.00,412.50 L 309.50,411.00 L 301.50,401.00 L 301.50,324.00 L 304.00,321.50 L 326.00,322.50 L 336.50,330.00 L 342.00,341.50 L 346.00,341.50 L 348.50,335.00 L 344.00,312.50 Z M 638.00,312.50 L 599.50,314.00 L 599.50,317.00 L 609.50,324.00 L 609.50,400.00 L 600.50,408.00 L 602.00,412.50 L 637.50,411.00 L 629.50,401.00 L 629.50,325.00 L 639.50,316.00 L 638.00,312.50 Z M 422.50,319.00 L 434.00,323.50 L 443.50,334.00 L 448.50,348.00 L 449.50,370.00 L 442.50,392.00 L 433.00,402.50 L 424.00,406.50 L 408.00,406.50 L 399.00,402.50 L 386.50,387.00 L 382.50,373.00 L 382.50,353.00 L 388.50,334.00 L 398.00,323.50 L 411.00,318.50 L 422.50,319.00 Z M 716.50,353.00 L 703.00,391.50 L 688.50,354.00 L 716.50,353.00 Z M 438.00,194.50 L 405.00,194.50 L 403.50,198.00 L 410.50,206.00 L 404.00,221.50 L 372.00,221.50 L 366.50,204.00 L 375.50,198.00 L 374.00,194.50 L 344.50,196.00 L 357.50,211.00 L 378.50,268.00 L 378.50,273.00 L 374.50,276.00 L 377.00,280.50 L 394.00,285.50 L 401.50,281.00 L 427.50,210.00 L 439.50,199.00 L 438.00,194.50 Z M 729.00,192.50 L 702.00,196.50 L 694.00,194.50 L 691.50,197.00 L 694.00,222.50 L 698.50,220.00 L 703.00,209.50 L 715.00,201.50 L 730.00,201.50 L 738.50,211.00 L 736.50,220.00 L 731.00,225.50 L 705.00,238.50 L 693.50,255.00 L 693.50,266.00 L 697.50,275.00 L 714.00,285.50 L 731.00,285.50 L 749.50,281.00 L 748.00,260.50 L 743.50,262.00 L 735.00,274.50 L 727.00,277.50 L 715.00,276.50 L 708.50,268.00 L 709.50,261.00 L 716.00,254.50 L 744.00,240.50 L 754.50,225.00 L 751.50,206.00 L 741.00,196.50 L 729.00,192.50 Z M 306.00,194.50 L 271.50,196.00 L 280.50,205.00 L 280.50,273.00 L 271.50,280.00 L 273.00,283.50 L 336.00,284.50 L 338.50,281.00 L 336.00,262.50 L 324.00,274.50 L 298.50,275.00 L 300.00,243.50 L 319.00,243.50 L 326.00,251.50 L 329.50,250.00 L 328.00,223.50 L 323.50,225.00 L 322.50,231.00 L 318.00,234.50 L 298.50,233.00 L 298.50,205.00 L 307.50,199.00 L 306.00,194.50 Z M 537.00,193.50 L 524.00,193.50 L 515.00,197.50 L 491.00,234.50 L 481.50,233.00 L 481.50,204.00 L 489.00,200.50 L 490.50,196.00 L 454.50,196.00 L 454.50,199.00 L 463.50,205.00 L 463.50,274.00 L 455.50,280.00 L 457.00,283.50 L 509.00,283.50 L 520.00,279.50 L 526.50,273.00 L 527.50,252.00 L 510.50,236.00 L 526.50,208.00 L 540.50,198.00 L 537.00,193.50 Z M 672.00,194.50 L 633.50,196.00 L 635.00,200.50 L 644.50,205.00 L 641.00,262.50 L 610.00,194.50 L 604.50,199.00 L 577.00,261.50 L 573.50,205.00 L 583.00,200.50 L 584.50,196.00 L 554.00,194.50 L 552.50,198.00 L 560.00,201.50 L 564.50,209.00 L 568.50,265.00 L 568.50,274.00 L 560.00,277.50 L 557.50,282.00 L 587.00,283.50 L 612.50,226.00 L 615.00,225.50 L 638.50,281.00 L 641.00,283.50 L 666.00,283.50 L 667.50,279.00 L 659.50,275.00 L 661.50,219.00 L 662.50,206.00 L 673.50,199.00 L 672.00,194.50 Z M 494.50,242.00 L 502.00,244.50 L 507.50,251.00 L 508.50,266.00 L 502.00,274.50 L 483.00,276.50 L 481.50,244.00 L 494.50,242.00 Z M 399.50,231.00 L 399.50,237.00 L 387.00,264.50 L 374.50,232.00 L 399.50,231.00 Z M 357.00,124.50 L 347.50,139.00 L 348.50,153.00 L 356.00,163.50 L 358.50,161.00 L 353.50,151.00 L 353.50,138.00 L 358.50,127.00 L 357.00,124.50 Z M 666.00,124.50 L 669.50,151.00 L 665.00,163.50 L 669.50,161.00 L 675.50,148.00 L 674.50,136.00 L 666.00,124.50 Z M 389.00,130.50 L 369.50,132.00 L 371.00,159.50 L 379.50,158.00 L 377.50,134.00 L 384.00,132.50 L 390.00,137.50 L 389.00,130.50 Z M 418.00,129.50 L 406.00,131.50 L 399.50,140.00 L 401.50,153.00 L 410.00,159.50 L 419.00,159.50 L 428.50,151.00 L 428.50,139.00 L 418.00,129.50 Z M 469.00,130.50 L 460.50,132.00 L 461.00,143.50 L 449.50,142.00 L 450.00,130.50 L 441.50,132.00 L 443.00,159.50 L 451.50,159.00 L 451.00,146.50 L 462.50,148.00 L 461.00,159.50 L 470.50,158.00 L 469.00,130.50 Z M 523.00,129.50 L 508.50,133.00 L 510.00,137.50 L 516.00,132.50 L 523.50,135.00 L 521.00,140.50 L 509.50,148.00 L 509.50,155.00 L 515.00,159.50 L 527.50,157.00 L 526.00,151.50 L 521.00,156.50 L 513.50,154.00 L 528.50,142.00 L 528.50,135.00 L 523.00,129.50 Z M 561.00,130.50 L 541.50,131.00 L 542.00,159.50 L 560.00,159.50 L 562.50,157.00 L 562.00,152.50 L 556.00,156.50 L 548.50,155.00 L 550.00,146.50 L 558.50,147.00 L 557.00,141.50 L 548.50,142.00 L 548.50,134.00 L 555.00,132.50 L 562.00,137.50 L 561.00,130.50 Z M 595.00,130.50 L 575.50,131.00 L 576.00,159.50 L 596.50,158.00 L 596.00,152.50 L 590.00,156.50 L 582.50,155.00 L 584.00,146.50 L 592.50,147.00 L 591.00,141.50 L 582.50,142.00 L 582.50,134.00 L 590.00,132.50 L 596.00,137.50 L 597.50,133.00 L 595.00,130.50 Z M 417.50,133.00 L 422.50,138.00 L 423.50,147.00 L 421.00,153.50 L 413.00,157.50 L 406.50,152.00 L 405.50,141.00 L 411.00,132.50 L 417.50,133.00 Z M 651.00,129.50 L 637.00,129.50 L 634.50,132.00 L 634.50,137.00 L 645.50,143.00 L 643.00,148.50 L 636.00,146.50 L 638.00,150.50 L 647.00,151.50 L 650.50,148.00 L 650.50,135.00 L 653.50,132.00 L 651.00,129.50 Z M 497.00,143.50 L 485.00,143.50 L 484.50,146.00 L 497.00,146.50 L 497.00,143.50 Z M 620.00,143.50 L 609.00,143.50 L 608.50,146.00 L 620.00,146.50 L 620.00,143.50 Z M 644.50,133.00 L 645.50,138.00 L 642.00,139.50 L 640.50,134.00 L 644.50,133.00 Z"/>
  </g>
</svg>
